# xmcd
#
# Track frame offsets:
#  222
#  17390
#  32852
#  47295
#  68622
#  86645
#  101410
#  116357
#  131790
#  147832
#  164750
#  183940
#  203087
#  216472
#  234267
#  251637
#  269790
#  288057
#  305052
#  323282
#
# Disc length: 4511 seconds
#
# Revision: 0
# Processed by: cddbd v1.5.1PL0 Copyright (c) Steve Scherf et al.
# Submitted via: Collectorz.com_Music_Collector 6.9
#
DISCID=18119d14
DTITLE=Upton, Barry - Wild at Heart
DYEAR=1996
DGENRE=General Pop
TTITLE0=Pink Cadillac
TTITLE1=Reckless Heart
TTITLE2=You Drive Me Wild
TTITLE3=Hey! You On The Radio
TTITLE4=American Heart
TTITLE5=Texanne
TTITLE6=Sleepless Nights
TTITLE7=One Way Love
TTITLE8=It's Only A Game
TTITLE9=You Look So Good [You Gotta Be Bad]
TTITLE10=1000 Ways [To Say 'I LOve You']
TTITLE11=On A Night Like This
TTITLE12=I Only Want To Be With You
TTITLE13=Sacred City
TTITLE14=Battered and Blue
TTITLE15=Open Up [Let Me In]
TTITLE16=Crazy Love
TTITLE17=Only Fools [Never Fall In Love]
TTITLE18=In A Heartbeat
TTITLE19=Bang The Drum All Day
EXTD=
EXTT0=
EXTT1=
EXTT2=
EXTT3=
EXTT4=
EXTT5=
EXTT6=
EXTT7=
EXTT8=
EXTT9=
EXTT10=
EXTT11=
EXTT12=
EXTT13=
EXTT14=
EXTT15=
EXTT16=
EXTT17=
EXTT18=
EXTT19=
PLAYORDER=
